Coordinates
version=1
nRows=11
nColumns=40
inDegrees=yes

Units are S.I. units (second, meters, Newtons, ...)
Angles are in degrees.

endheader
time	pelvis_tilt	pelvis_list	pelvis_rotation	pelvis_tx	pelvis_ty	pelvis_tz	hip_flexion_r	hip_adduction_r	hip_rotation_r	knee_angle_r	knee_angle_r_beta	ankle_angle_r	subtalar_angle_r	mtp_angle_r	hip_flexion_l	hip_adduction_l	hip_rotation_l	knee_angle_l	knee_angle_l_beta	ankle_angle_l	subtalar_angle_l	mtp_angle_l	lumbar_extension	lumbar_bending	lumbar_rotation	arm_flex_r	arm_add_r	arm_rot_r	elbow_flex_r	pro_sup_r	wrist_flex_r	wrist_dev_r	arm_flex_l	arm_add_l	arm_rot_l	elbow_flex_l	pro_sup_l	wrist_flex_l	wrist_dev_l
      3.91750000	     -2.30329731	     -5.12873888	     -2.43064094	      1.09387851	      0.93070391	      0.48161639	     16.37036966	      2.68020790	     -9.43675796	     18.20092647	     18.20092647	      6.11440691	      0.65869157	     -2.13138251	      5.65688472	    -11.24145291	    -10.32685347	     34.54831170	     34.54831170	     14.13165162	    -13.68936014	     -6.50615139	    -11.39070058	      6.31360166	     -0.04099983	      1.21576927	    -15.56984674	    -10.06665689	     51.16347901	     44.97259306	      0.00000000	      0.00000000	     20.79544211	    -11.34709128	      0.77000341	     32.53644117	     46.65169767	      0.00000000	      0.00000000
      3.93028571	     -2.14748228	     -5.22486199	     -1.89444710	      1.09353985	      0.93101331	      0.48407831	     15.86603247	      2.86871401	     -9.81076962	     18.23667872	     18.23667872	      6.43543328	      0.43895677	     -2.21070333	      7.39258730	    -11.95045775	     -9.28237710	     38.16586096	     38.16586096	     12.67580203	    -14.56345433	     -7.05172916	    -11.54071481	      6.37894080	     -0.16300086	      2.14680448	    -15.86591568	    -10.20254279	     51.89397549	     44.96304166	      0.00000000	      0.00000000	     20.49191454	    -11.31783268	      0.92296557	     32.12050776	     46.62102400	      0.00000000	      0.00000000
      3.94307143	     -2.06191456	     -5.30901330	     -1.33258669	      1.09289830	      0.93102710	      0.48647723	     15.48145304	      3.05207875	    -10.13750408	     18.31710256	     18.31710256	      6.76769480	      0.13719462	     -2.30303035	      9.40081883	    -12.58225016	     -8.05790374	     41.94521798	     41.94521798	     10.90675343	    -15.54128056	     -7.53755939	    -11.61310523	      6.44013345	     -0.32261121	      3.05230963	    -16.15853594	    -10.22737148	     52.85037190	     44.94014612	      0.00000000	      0.00000000	     20.26197059	    -11.33940779	      1.10505621	     31.59699198	     46.58774148	      0.00000000	      0.00000000
      3.95585714	     -2.07711575	     -5.39826585	     -0.76472347	      1.09196069	      0.93072808	      0.48880860	     15.26902026	      3.23215070	    -10.49409622	     18.47103596	     18.47103596	      7.08500895	     -0.22711746	     -2.41443535	     11.67555113	    -13.12260364	     -6.67900813	     45.80140643	     45.80140643	      8.89167322	    -16.59506204	     -7.84087241	    -11.57552044	      6.48780886	     -0.52417387	      3.84645290	    -16.49308739	    -10.10974371	     54.13719797	     44.90050523	      0.00000000	      0.00000000	     20.06766251	    -11.35938410	      1.34932673	     30.97370036	     46.54551410	      0.00000000	      0.00000000
      3.96864286	     -2.00117905	     -5.45216581	     -0.21935378	      1.09080739	      0.93040867	      0.49104898	     15.02677939	      3.36461069	    -10.79924665	     18.73108145	     18.73108145	      7.44564361	     -0.57604966	     -2.58129008	     13.91844496	    -13.52422589	     -5.28885342	     49.61728593	     49.61728593	      7.08834427	    -17.35323347	     -7.16265240	    -11.71983077	      6.52924287	     -0.17404908	      3.58892559	    -17.49856526	     -8.89863893	     57.75330244	     44.76757267	      0.00000000	      0.00000000	     20.56038144	    -11.22433956	      2.43165358	     29.73557237	     46.37705175	      0.00000000	      0.00000000
      3.98142857	     -1.85461253	     -5.59751645	      0.30466347	      1.08950727	      0.93018100	      0.49335334	     14.65124331	      3.60088002	    -11.20121082	     18.86093968	     18.86093968	      7.78545582	     -0.69222157	     -2.70979186	     16.06826830	    -14.00800641	     -4.00891489	     53.19902348	     53.19902348	      5.23728918	    -17.82787554	     -6.72639371	    -11.93612479	      6.55024638	     -0.04849733	      4.63754780	    -17.86508299	     -9.01157467	     58.39090066	     44.76063490	      0.00000000	      0.00000000	     20.61390379	    -11.14620673	      2.54892854	     29.64465874	     46.35858827	      0.00000000	      0.00000000
      3.99421429	     -1.95373679	     -5.58100442	      0.80915597	      1.08783658	      0.92961722	      0.49526048	     14.66303419	      3.58801243	    -11.68607100	     19.18172907	     19.18172907	      8.20987483	     -0.69368304	     -2.78196996	     18.69104143	    -13.98868551	     -2.45547571	     56.95064387	     56.95064387	      5.24494015	    -17.79629492	     -1.20296114	    -11.89828776	      6.55483570	      0.09525375	      5.00488793	    -18.53891139	     -8.41873227	     60.80854527	     44.71209513	      0.00000000	      0.00000000	     20.72176289	    -11.16549237	      3.35231547	     29.47218679	     46.22580662	      0.00000000	      0.00000000
      4.00700000	     -1.90065768	     -5.69524195	      1.26957396	      1.08612864	      0.92929659	      0.49737306	     14.44431275	      3.77427591	    -12.09400197	     19.35425003	     19.35425003	      8.56384504	     -0.77006681	     -2.91417058	     20.81636354	    -14.27868461	     -1.36785445	     59.82373802	     59.82373802	      3.76203007	    -18.10532775	     -0.52350096	    -12.04747975	      6.60060392	      0.27457903	      6.20772255	    -18.81579690	     -8.50969558	     61.48401637	     44.70469501	      0.00000000	      0.00000000	     20.83608998	    -11.12704047	      3.44705612	     29.44913828	     46.21232407	      0.00000000	      0.00000000
      4.01978571	     -1.96077239	     -5.57491173	      1.64874854	      1.08411319	      0.92898361	      0.49919533	     14.43004715	      3.62901541	    -12.61384110	     19.68157692	     19.68157692	      9.03914721	     -0.43235026	     -2.84544004	     23.11074275	    -14.05663178	     -0.25897902	     62.61296707	     62.61296707	      4.39317954	    -18.02684428	      5.28110170	    -12.13202645	      6.40625829	      0.33164832	      7.03922706	    -19.29039625	     -7.86023769	     63.46872207	     44.66546267	      0.00000000	      0.00000000	     20.89948566	    -11.23301342	      3.90176235	     29.64665425	     46.13777356	      0.00000000	      0.00000000
      4.03257143	     -1.97960548	     -5.62764589	      1.99361607	      1.08206396	      0.92888855	      0.50119722	     14.23309533	      3.76672872	    -12.93815036	     19.68721563	     19.68721563	      9.28844377	     -0.37423394	     -2.88326594	     25.01923171	    -14.23638920	      0.41797007	     64.46489360	     64.46489360	      3.57387506	    -18.27730077	      5.89143649	    -12.26964738	      6.34863862	      0.62961898	      8.28171593	    -19.51961772	     -7.90613464	     64.04032090	     44.66162059	      0.00000000	      0.00000000	     21.15754345	    -11.14504820	      3.98890707	     29.72626733	     46.12841182	      0.00000000	      0.00000000
      4.04535714	     -2.02464183	     -5.52280151	      2.30990766	      1.07986708	      0.92894668	      0.50290866	     14.10474291	      3.64268822	    -13.51272562	     19.81409383	     19.81409383	      9.70463618	      0.19892942	     -2.69658410	     26.89843037	    -14.12406889	      0.97475646	     65.97705692	     65.97705692	      4.32901512	    -18.35740502	      9.85865125	    -12.38678820	      6.16749075	      0.67900967	      9.51111228	    -19.79997597	     -7.32068660	     65.37914902	     44.64467445	      0.00000000	      0.00000000	     21.30571574	    -11.24023877	      4.28695334	     29.94613643	     46.08166171	      0.00000000	      0.00000000
